# File created by Blade
# Date/Time:  Fri Jan 16 17:18:57 2015
#---------------------------------------------------------
:version 1.10
:name HOM
:units
  mass 1.0
  length 1.000000
  angle deg
:documentation
     Acclaim Skeleton File
:root
   axis xyz
   order TX TY TZ RX RY RZ
   position 0.000000 0.000000 0.000000
   orientation 0 0 0
:bonedata
   begin
      id 1
      name Spine_dum
      direction 0.000000 1.000000 0.000000
      length 7.170412
      axis 0.0 0.0 0.0 xyz
   end
   begin
      id 2
      name LeftUpLeg_dum
      direction 1.000000 0.000000 0.000000
      length 4.318350
      axis 0.0 0.0 0.0 xyz
   end
   begin
      id 3
      name RightUpLeg_dum
      direction -1.000000 0.000000 0.000000
      length 4.318350
      axis 0.0 0.0 0.0 xyz
   end
   begin
      id 4
      name Spine
      direction 0.000000 1.000000 0.000000
      length 0.000000
      axis 0.0 0.0 0.0 xyz
      dof rx ry rz
   end
   begin
      id 5
      name Spine_dum1
      direction 0.000000 1.000000 0.000000
      length 14.276153
      axis 0.0 0.0 0.0 xyz
   end
   begin
      id 6
      name Spine_dum2
      direction 0.000000 1.000000 0.000000
      length 10.718243
      axis 0.0 0.0 0.0 xyz
   end
   begin
      id 7
      name Spine_dum3
      direction 0.000000 1.000000 0.000000
      length 10.718243
      axis 0.0 0.0 0.0 xyz
   end
   begin
      id 8
      name Head
      direction 0.000000 1.000000 0.000000
      length 4.527550
      axis 0.0 0.0 0.0 xyz
      dof rx ry rz
   end
   begin
      id 9
      name LeftShoulder
      direction 1.000000 0.000000 0.000000
      length 7.058872
      axis 0.0 0.0 -90.0 xyz
      dof rx ry rz
   end
   begin
      id 10
      name LeftArm
      direction 1.000000 0.000000 0.000000
      length 10.955525
      axis 0.0 0.0 -90.0 xyz
      dof rx ry rz
   end
   begin
      id 11
      name LeftForeArm
      direction 1.000000 0.000000 0.000000
      length 8.193716
      axis 0.0 0.0 -90.0 xyz
      dof ry rz rx
   end
   begin
      id 12
      name LeftHand
      direction 0.000000 0.000000 0.000000
      length 0.000000
      axis 0.0 0.0 -90.0 xyz
      dof rx ry rz
   end
   begin
      id 13
      name LeftHand_dum1
      direction 0.000000 0.000000 0.000000
      length 0.000000
      axis 0.0 0.0 -90.0 xyz
   end
   begin
      id 14
      name LeftHand_dum2
      direction 1.000000 0.000000 0.000000
      length 3.937000
      axis 0.0 0.0 -90.0 xyz
   end
   begin
      id 15
      name LeftHandThumb1
      direction 0.000000 0.000000 1.000000
      length 3.937000
      axis 0.0 0.0 -90.0 xyz
      dof rx rz ry
   end
   begin
      id 16
      name RightShoulder
      direction -1.000000 0.000000 0.000000
      length 7.058872
      axis 0.0 0.0 90.0 xyz
      dof rx ry rz
   end
   begin
      id 17
      name RightArm
      direction -1.000000 0.000000 0.000000
      length 10.955525
      axis 0.0 0.0 90.0 xyz
      dof rx ry rz
   end
   begin
      id 18
      name RightForeArm
      direction -1.000000 0.000000 0.000000
      length 8.193716
      axis 0.0 0.0 90.0 xyz
      dof ry rz rx
   end
   begin
      id 19
      name RightHand
      direction 0.000000 0.000000 0.000000
      length 0.000000
      axis 0.0 0.0 90.0 xyz
      dof rx ry rz
   end
   begin
      id 20
      name RightHand_dum1
      direction 0.000000 0.000000 0.000000
      length 0.000000
      axis 0.0 0.0 90.0 xyz
   end
   begin
      id 21
      name RightHand_dum2
      direction -1.000000 0.000000 0.000000
      length 3.937000
      axis 0.0 0.0 90.0 xyz
   end
   begin
      id 22
      name RightHandThumb1
      direction 0.000000 0.000000 1.000000
      length 3.937000
      axis 0.0 0.0 90.0 xyz
      dof rx rz ry
   end
   begin
      id 23
      name LeftUpLeg
      direction 0.000000 -1.000000 0.000000
      length 17.323638
      axis 0.0 0.0 0.0 xyz
      dof rx ry rz
   end
   begin
      id 24
      name LeftLeg
      direction 0.000000 -1.000000 0.000000
      length 16.270368
      axis 0.0 0.0 0.0 xyz
      dof rx ry rz
   end
   begin
      id 25
      name LeftFoot
      direction 0.000000 -0.258819 0.965926
      length 4.922846
      axis 15.0 0.0 0.0 xyz
      dof rx ry rz
   end
   begin
      id 26
      name LeftToeBase
      direction 0.000000 0.000000 1.000000
      length 2.952750
      axis 0.0 0.0 0.0 xyz
      dof rx ry rz
   end
   begin
      id 27
      name RightUpLeg
      direction 0.000000 -1.000000 0.000000
      length 17.323638
      axis 0.0 0.0 0.0 xyz
      dof rx ry rz
   end
   begin
      id 28
      name RightLeg
      direction 0.000000 -1.000000 0.000000
      length 16.270368
      axis 0.0 0.0 0.0 xyz
      dof rx ry rz
   end
   begin
      id 29
      name RightFoot
      direction 0.000000 -0.258819 0.965926
      length 4.922846
      axis 15.0 0.0 0.0 xyz
      dof rx ry rz
   end
   begin
      id 30
      name RightToeBase
      direction 0.000000 0.000000 1.000000
      length 2.952750
      axis 0.0 0.0 0.0 xyz
      dof rx ry rz
   end
:hierarchy
   begin
      root Spine_dum LeftUpLeg_dum RightUpLeg_dum
      Spine_dum Spine
      LeftUpLeg_dum LeftUpLeg
      RightUpLeg_dum RightUpLeg
      Spine Spine_dum1 Spine_dum2 Spine_dum3
      Spine_dum1 Head
      Spine_dum2 LeftShoulder
      Spine_dum3 RightShoulder
      LeftShoulder LeftArm
      LeftArm LeftForeArm
      LeftForeArm LeftHand
      LeftHand LeftHand_dum1 LeftHand_dum2
      LeftHand_dum1 LeftHandThumb1
      RightShoulder RightArm
      RightArm RightForeArm
      RightForeArm RightHand
      RightHand RightHand_dum1 RightHand_dum2
      RightHand_dum1 RightHandThumb1
      LeftUpLeg LeftLeg
      LeftLeg LeftFoot
      LeftFoot LeftToeBase
      RightUpLeg RightLeg
      RightLeg RightFoot
      RightFoot RightToeBase
   end

# File created by Blade
# Date/Time:  Fri Jan 16 17:19:08 2015
# Frame Rate: 120.000 fps
#------------------------------------------------------
:FULLY-SPECIFIED
:DEGREES
1905
root -5.348946 35.201776 -9.483501 -1.260454 -5.630369 -6.050512
Spine -1.970586 1.046234 10.481342
Head 4.997601 -4.765172 -11.847596
LeftShoulder -19.466872 13.269023 -16.497400
LeftArm 20.814883 -6.657522 -72.566634
LeftForeArm 14.362645 0.000000 9.626096
LeftHand 0.507733 -0.000000 -5.986102
LeftHandThumb1 -26.253704 0.000000 33.147579
RightShoulder -1.654095 12.508715 -5.772972
RightArm -19.959265 61.984603 32.020116
RightForeArm 14.793484 0.000000 66.769329
RightHand 9.975798 -0.000000 -11.963685
RightHandThumb1 -24.326973 -0.000000 -32.862282
LeftUpLeg 12.219471 14.250942 7.153528
LeftLeg -9.232527 -0.000000 0.000000
LeftFoot -16.265742 28.325672 -8.336720
LeftToeBase 22.776729 -0.000000 -0.000000
RightUpLeg 8.964168 -3.848589 4.225941
RightLeg -5.328698 -0.000000 0.000000
RightFoot -4.348345 -28.458014 3.761806
RightToeBase 13.647269 -0.000000 -0.000000
1906
root -5.348928 35.201589 -9.483197 -1.261363 -5.571306 -6.040231
Spine -1.958665 1.012525 10.477913
Head 4.937990 -4.773000 -11.905968
LeftShoulder -19.488784 13.252499 -16.535374
LeftArm 20.829049 -6.704506 -72.575301
LeftForeArm 14.403694 -0.000000 9.659553
LeftHand 0.506692 0.000000 -5.923633
LeftHandThumb1 -26.253704 0.000000 33.147579
RightShoulder -1.777565 12.469193 -5.819341
RightArm -20.376309 62.579800 31.827688
RightForeArm 14.643456 0.000000 68.742063
RightHand 9.952040 -0.000000 -11.990860
RightHandThumb1 -24.326973 -0.000000 -32.862282
LeftUpLeg 12.205342 14.235538 7.144123
LeftLeg -9.233841 -0.000000 0.000000
LeftFoot -16.228113 28.279540 -8.314393
LeftToeBase 22.711389 -0.000000 -0.000000
RightUpLeg 8.968963 -3.871220 4.218604
RightLeg -5.329330 -0.000000 0.000000
RightFoot -4.364560 -28.497541 3.765951
RightToeBase 13.672911 -0.000000 -0.000000
1907
root -5.349228 35.201345 -9.483616 -1.254854 -5.509258 -6.032168
Spine -1.960115 0.975583 10.476715
Head 4.893422 -4.774045 -11.961855
LeftShoulder -19.493117 13.243634 -16.572113
LeftArm 20.827034 -6.716734 -72.563618
LeftForeArm 14.399671 -0.000000 9.699503
LeftHand 0.488911 -0.000000 -5.890785
LeftHandThumb1 -26.253704 0.000000 33.147579
RightShoulder -1.894971 12.401335 -5.833668
RightArm -20.696390 63.188767 31.686724
RightForeArm 14.657508 -0.000000 70.613393
RightHand 10.136482 -0.000000 -12.047028
RightHandThumb1 -24.326973 -0.000000 -32.862282
LeftUpLeg 12.179399 14.188053 7.133282
LeftLeg -9.230617 -0.000000 0.000000
LeftFoot -16.242780 28.245126 -8.358050
LeftToeBase 22.705262 -0.000000 -0.000000
RightUpLeg 8.958953 -3.898581 4.214591
RightLeg -5.316446 -0.000000 0.000000
RightFoot -4.387092 -28.522075 3.761901
RightToeBase 13.692686 -0.000000 -0.000000
1908
root -5.351328 35.200729 -9.483360 -1.231537 -5.453572 -6.022838
Spine -1.990895 0.941367 10.464244
Head 4.863757 -4.753563 -12.012299
LeftShoulder -19.503591 13.236154 -16.587424
LeftArm 20.816226 -6.718058 -72.559034
LeftForeArm 14.379522 -0.000000 9.710701
LeftHand 0.496687 0.000000 -5.889413
LeftHandThumb1 -26.253704 0.000000 33.147579
RightShoulder -2.013087 12.333005 -5.840866
RightArm -20.997883 63.756289 31.564560
RightForeArm 14.692832 -0.000000 72.403217
RightHand 10.397075 -0.000000 -12.109741
RightHandThumb1 -24.326973 -0.000000 -32.862282
LeftUpLeg 12.149777 14.172917 7.121408
LeftLeg -9.245212 -0.000000 0.000000
LeftFoot -16.225773 28.210681 -8.359586
LeftToeBase 22.708541 -0.000000 -0.000000
RightUpLeg 8.934281 -3.929588 4.211890
RightLeg -5.307601 -0.000000 0.000000
RightFoot -4.411122 -28.554306 3.783219
RightToeBase 13.679237 -0.000000 -0.000000
1909
root -5.351216 35.201509 -9.482124 -1.241450 -5.395086 -6.025626
Spine -1.974934 0.894003 10.484440
Head 4.822274 -4.735483 -12.095376
LeftShoulder -19.504722 13.239028 -16.634217
LeftArm 20.826399 -6.755743 -72.566872
LeftForeArm 14.401481 -0.000000 9.719404
LeftHand 0.497434 -0.000000 -5.903577
LeftHandThumb1 -26.253704 0.000000 33.147579
RightShoulder -2.127547 12.261122 -5.844452
RightArm -21.249104 64.343163 31.463850
RightForeArm 14.825098 -0.000000 74.142337
RightHand 10.523286 -0.000000 -12.222266
RightHandThumb1 -24.326973 -0.000000 -32.862282
LeftUpLeg 12.151827 14.100968 7.127238
LeftLeg -9.246740 -0.000000 0.000000
LeftFoot -16.184418 28.189257 -8.285993
LeftToeBase 22.735833 -0.000000 -0.000000
RightUpLeg 8.946104 -3.969553 4.214337
RightLeg -5.300368 -0.000000 0.000000
RightFoot -4.422098 -28.563476 3.800110
RightToeBase 13.702078 -0.000000 -0.000000
1910
root -5.351943 35.200944 -9.481881 -1.244789 -5.342344 -6.028741
Spine -1.959889 0.839225 10.493940
Head 4.770201 -4.700102 -12.154275
LeftShoulder -19.507999 13.214489 -16.642632
LeftArm 20.798808 -6.726581 -72.568794
LeftForeArm 14.373642 -0.000000 9.728170
LeftHand 0.494134 -0.000000 -5.944166
LeftHandThumb1 -26.253704 0.000000 33.147579
RightShoulder -2.227717 12.201572 -5.826018
RightArm -21.505049 64.845478 31.327024
RightForeArm 15.028043 0.000000 75.807182
RightHand 10.666099 -0.000000 -12.208709
RightHandThumb1 -24.326973 -0.000000 -32.862282
LeftUpLeg 12.146088 14.078502 7.127811
LeftLeg -9.266253 -0.000000 0.000000
LeftFoot -16.198414 28.185945 -8.337458
LeftToeBase 22.715857 -0.000000 -0.000000
RightUpLeg 8.952219 -3.989882 4.220865
RightLeg -5.297567 -0.000000 0.000000
RightFoot -4.429585 -28.590599 3.803696
RightToeBase 13.684532 -0.000000 -0.000000
1911
root -5.352926 35.201101 -9.481262 -1.238628 -5.304635 -6.034207
Spine -1.960481 0.797161 10.510606
Head 4.725501 -4.667444 -12.232245
LeftShoulder -19.508321 13.238510 -16.663375
LeftArm 20.809612 -6.708277 -72.580433
LeftForeArm 14.335467 -0.000000 9.716410
LeftHand 0.484934 -0.000000 -5.951383
LeftHandThumb1 -26.253704 0.000000 33.147579
RightShoulder -2.355704 12.249244 -5.835687
RightArm -21.804464 65.288699 31.165467
RightForeArm 15.360426 -0.000000 77.373394
RightHand 10.907703 -0.000000 -12.093940
RightHandThumb1 -24.326973 -0.000000 -32.862282
LeftUpLeg 12.140950 14.061467 7.133846
LeftLeg -9.281722 -0.000000 0.000000
LeftFoot -16.183791 28.173527 -8.323936
LeftToeBase 22.732639 -0.000000 -0.000000
RightUpLeg 8.943369 -4.015902 4.226436
RightLeg -5.282732 -0.000000 0.000000
RightFoot -4.447123 -28.593372 3.824344
RightToeBase 13.680388 -0.000000 -0.000000
1912
root -5.355248 35.200972 -9.480146 -1.226806 -5.271089 -6.033064
Spine -1.972140 0.760275 10.506804
Head 4.689685 -4.602687 -12.292664
LeftShoulder -19.512754 13.231314 -16.660469
LeftArm 20.784759 -6.674837 -72.589476
LeftForeArm 14.311988 0.000000 9.705903
LeftHand 0.501166 -0.000000 -5.950245
LeftHandThumb1 -26.253704 0.000000 33.147579
RightShoulder -2.472833 12.207508 -5.809544
RightArm -21.947929 65.714705 31.112286
RightForeArm 15.422795 -0.000000 78.846511
RightHand 11.154652 -0.000000 -12.321366
RightHandThumb1 -24.326973 -0.000000 -32.862282
LeftUpLeg 12.131381 14.044253 7.133116
LeftLeg -9.301871 -0.000000 0.000000
LeftFoot -16.177585 28.158444 -8.329420
LeftToeBase 22.765048 -0.000000 -0.000000
RightUpLeg 8.932632 -4.040298 4.229839
RightLeg -5.275655 -0.000000 0.000000
RightFoot -4.461594 -28.597767 3.835773
RightToeBase 13.660466 -0.000000 -0.000000
1913
root -5.357061 35.200582 -9.478957 -1.228824 -5.246532 -6.036479
Spine -1.964185 0.715351 10.513389
Head 4.655776 -4.546893 -12.354728
LeftShoulder -19.517467 13.257442 -16.668157
LeftArm 20.790173 -6.642865 -72.603682
LeftForeArm 14.264771 -0.000000 9.695222
LeftHand 0.467961 -0.000000 -6.020398
LeftHandThumb1 -26.253704 0.000000 33.147579
RightShoulder -2.566121 12.149223 -5.782309
RightArm -22.041050 66.165373 31.102864
RightForeArm 15.575363 -0.000000 80.272246
RightHand 11.302662 -0.000000 -12.305288
RightHandThumb1 -24.326973 -0.000000 -32.862282
LeftUpLeg 12.140511 14.041971 7.143231
LeftLeg -9.322224 -0.000000 0.000000
LeftFoot -16.156549 28.138706 -8.316188
LeftToeBase 22.761435 -0.000000 -0.000000
RightUpLeg 8.936451 -4.047006 4.239147
RightLeg -5.271915 -0.000000 0.000000
RightFoot -4.473076 -28.620961 3.831133
RightToeBase 13.678852 -0.000000 -0.000000
1914
root -5.357462 35.200661 -9.480246 -1.210567 -5.201496 -6.029777
Spine -1.981257 0.663917 10.502276
Head 4.627742 -4.493996 -12.403747
LeftShoulder -19.495536 13.270234 -16.663439
LeftArm 20.765307 -6.620912 -72.623804
LeftForeArm 14.270334 -0.000000 9.690486
LeftHand 0.433219 -0.000000 -6.034707
LeftHandThumb1 -26.253704 0.000000 33.147579
RightShoulder -2.683844 12.089620 -5.754427
RightArm -22.102237 66.625173 31.125107
RightForeArm 15.829180 -0.000000 81.625635
RightHand 11.434691 -0.000000 -11.999078
RightHandThumb1 -24.326973 -0.000000 -32.862282
LeftUpLeg 12.107574 13.995763 7.128658
LeftLeg -9.321856 -0.000000 0.000000
LeftFoot -16.157345 28.133092 -8.342250
LeftToeBase 22.754621 -0.000000 -0.000000
RightUpLeg 8.911090 -4.089803 4.233225
RightLeg -5.255911 -0.000000 0.000000
RightFoot -4.486626 -28.616293 3.840764
RightToeBase 13.678148 -0.000000 -0.000000
1915
root -5.359566 35.199813 -9.478834 -1.215990 -5.188741 -6.040796
Spine -1.968503 0.622632 10.515162
Head 4.598187 -4.427430 -12.454307
LeftShoulder -19.489798 13.264778 -16.651165
LeftArm 20.733134 -6.612877 -72.663511
LeftForeArm 14.294954 -0.000000 9.659371
LeftHand 0.457265 -0.000000 -6.055208
LeftHandThumb1 -26.253704 0.000000 33.147579
RightShoulder -2.754998 11.998161 -5.727096
RightArm -22.134853 67.053516 31.152043
RightForeArm 16.112079 -0.000000 82.887133
RightHand 11.452865 -0.000000 -12.182950
RightHandThumb1 -24.326973 -0.000000 -32.862282
LeftUpLeg 12.125297 13.997806 7.148593
LeftLeg -9.344334 -0.000000 0.000000
LeftFoot -16.150954 28.114584 -8.331388
LeftToeBase 22.760943 -0.000000 -0.000000
RightUpLeg 8.918010 -4.098591 4.245642
RightLeg -5.250800 -0.000000 0.000000
RightFoot -4.493959 -28.624482 3.834559
RightToeBase 13.693114 -0.000000 -0.000000
1916
root -5.361874 35.199429 -9.477910 -1.215052 -5.171676 -6.046965
Spine -1.963095 0.576436 10.513334
Head 4.569744 -4.359399 -12.479964
LeftShoulder -19.475573 13.289116 -16.642512
LeftArm 20.717846 -6.576161 -72.687505
LeftForeArm 14.276935 -0.000000 9.636369
LeftHand 0.458732 -0.000000 -6.114636
LeftHandThumb1 -26.253704 0.000000 33.147579
RightShoulder -2.837414 11.962738 -5.707109
RightArm -22.161677 67.374756 31.204591
RightForeArm 16.343425 -0.000000 84.045393
RightHand 11.612696 -0.000000 -12.085733
RightHandThumb1 -24.326973 -0.000000 -32.862282
LeftUpLeg 12.127879 13.982533 7.160001
LeftLeg -9.353536 -0.000000 0.000000
LeftFoot -16.142958 28.107171 -8.323599
LeftToeBase 22.756995 -0.000000 -0.000000
RightUpLeg 8.918494 -4.107165 4.256073
RightLeg -5.245777 -0.000000 0.000000
RightFoot -4.503343 -28.635396 3.841670
RightToeBase 13.678936 -0.000000 -0.000000
